HIERARCHY
ROOT mixamorig:Hips
{
	OFFSET 0.000000 201.639420 0.000000
	CHANNELS 6 Xposition Yposition Zposition Xrotation Yrotation Zrotation
	JOINT mixamorig:Spine
	{
		OFFSET 0.006200 19.524994 -2.481800
		CHANNELS 3 Xrotation Yrotation Zrotation
		JOINT mixamorig:Spine1
		{
			OFFSET -0.000900 22.835007 -2.825400
			CHANNELS 3 Xrotation Yrotation Zrotation
			JOINT mixamorig:Spine2
			{
				OFFSET -0.020600 26.552490 -3.193300
				CHANNELS 3 Xrotation Yrotation Zrotation
				JOINT mixamorig:Neck
				{
					OFFSET -0.060000 30.701813 1.352200
					CHANNELS 3 Xrotation Yrotation Zrotation
					JOINT mixamorig:Head
					{
						OFFSET -0.087200 22.547607 3.670900
						CHANNELS 3 Xrotation Yrotation Zrotation
						JOINT mixamorig:HeadTop_End
						{
							OFFSET -0.830600 40.355194 7.893500
							CHANNELS 3 Xrotation Yrotation Zrotation
							End Site
							{
								OFFSET 0.000000 30.592346 0.000000
							}
						}
						JOINT mixamorig:RightEye
						{
							OFFSET -6.302100 18.118591 16.197100
							CHANNELS 3 Xrotation Yrotation Zrotation
							End Site
							{
								OFFSET 0.000000 30.592346 0.000000
							}
						}
						JOINT mixamorig:LeftEye
						{
							OFFSET 6.741500 18.382690 16.401899
							CHANNELS 3 Xrotation Yrotation Zrotation
							End Site
							{
								OFFSET 0.000000 30.592346 0.000000
							}
						}
					}
				}
				JOINT mixamorig:LeftShoulder
				{
					OFFSET 11.924900 18.230499 1.425400
					CHANNELS 3 Xrotation Yrotation Zrotation
					JOINT mixamorig:LeftArm
					{
						OFFSET 25.435989 -0.697632 -5.229300
						CHANNELS 3 Xrotation Yrotation Zrotation
						JOINT mixamorig:LeftForeArm
						{
							OFFSET 54.684776 0.000000 0.000000
							CHANNELS 3 Xrotation Yrotation Zrotation
							JOINT mixamorig:LeftHand
							{
								OFFSET 55.098175 0.000000 0.000000
								CHANNELS 3 Xrotation Yrotation Zrotation
								JOINT mixamorig:LeftHandMiddle1
								{
									OFFSET 23.369751 0.000000 0.000000
									CHANNELS 3 Xrotation Yrotation Zrotation
									JOINT mixamorig:LeftHandMiddle2
									{
										OFFSET 6.378677 0.000000 0.000000
										CHANNELS 3 Xrotation Yrotation Zrotation
										JOINT mixamorig:LeftHandMiddle3
										{
											OFFSET 6.148331 0.000000 0.000000
											CHANNELS 3 Xrotation Yrotation Zrotation
											JOINT mixamorig:LeftHandMiddle4
											{
												OFFSET 6.582504 0.000000 0.000000
												CHANNELS 3 Xrotation Yrotation Zrotation
												End Site
												{
													OFFSET -1.168900 6.395691 1.028606
												}
											}
										}
									}
								}
								JOINT mixamorig:LeftHandThumb1
								{
									OFFSET 7.235672 -3.848206 5.434273
									CHANNELS 3 Xrotation Yrotation Zrotation
									JOINT mixamorig:LeftHandThumb2
									{
										OFFSET 6.568451 -3.792297 3.792300
										CHANNELS 3 Xrotation Yrotation Zrotation
										JOINT mixamorig:LeftHandThumb3
										{
											OFFSET 6.063080 -3.500519 3.500518
											CHANNELS 3 Xrotation Yrotation Zrotation
											JOINT mixamorig:LeftHandThumb4
											{
												OFFSET 4.793182 -2.767334 2.767349
												CHANNELS 3 Xrotation Yrotation Zrotation
												End Site
												{
													OFFSET 0.101639 6.054260 1.275483
												}
											}
										}
									}
								}
								JOINT mixamorig:LeftHandIndex1
								{
									OFFSET 23.101074 -0.309540 4.992809
									CHANNELS 3 Xrotation Yrotation Zrotation
									JOINT mixamorig:LeftHandIndex2
									{
										OFFSET 6.226883 0.000000 0.000000
										CHANNELS 3 Xrotation Yrotation Zrotation
										JOINT mixamorig:LeftHandIndex3
										{
											OFFSET 6.094330 0.000000 0.000000
											CHANNELS 3 Xrotation Yrotation Zrotation
											JOINT mixamorig:LeftHandIndex4
											{
												OFFSET 5.482605 0.000000 0.000000
												CHANNELS 3 Xrotation Yrotation Zrotation
												End Site
												{
													OFFSET -1.427902 5.233032 0.797164
												}
											}
										}
									}
								}
								JOINT mixamorig:LeftHandRing1
								{
									OFFSET 22.299240 0.021149 -3.964172
									CHANNELS 3 Xrotation Yrotation Zrotation
									JOINT mixamorig:LeftHandRing2
									{
										OFFSET 6.321869 0.000000 0.000000
										CHANNELS 3 Xrotation Yrotation Zrotation
										JOINT mixamorig:LeftHandRing3
										{
											OFFSET 5.899796 0.000000 0.000000
											CHANNELS 3 Xrotation Yrotation Zrotation
											JOINT mixamorig:LeftHandRing4
											{
												OFFSET 6.517899 0.000000 0.000000
												CHANNELS 3 Xrotation Yrotation Zrotation
												End Site
												{
													OFFSET -1.637299 6.232208 0.980890
												}
											}
										}
									}
								}
								JOINT mixamorig:LeftHandPinky1
								{
									OFFSET 20.463791 -0.302338 -8.562233
									CHANNELS 3 Xrotation Yrotation Zrotation
									JOINT mixamorig:LeftHandPinky2
									{
										OFFSET 6.908646 0.000000 0.000000
										CHANNELS 3 Xrotation Yrotation Zrotation
										JOINT mixamorig:LeftHandPinky3
										{
											OFFSET 4.622849 0.000000 0.000000
											CHANNELS 3 Xrotation Yrotation Zrotation
											JOINT mixamorig:LeftHandPinky4
											{
												OFFSET 5.216080 0.000000 0.000000
												CHANNELS 3 Xrotation Yrotation Zrotation
												End Site
												{
													OFFSET -0.606308 5.116241 0.814926
												}
											}
										}
									}
								}
							}
						}
					}
				}
				JOINT mixamorig:RightShoulder
				{
					OFFSET -12.001300 18.284088 1.348900
					CHANNELS 3 Xrotation Yrotation Zrotation
					JOINT mixamorig:RightArm
					{
						OFFSET -25.308500 -0.751312 -5.164599
						CHANNELS 3 Xrotation Yrotation Zrotation
						JOINT mixamorig:RightForeArm
						{
							OFFSET -54.684429 0.000000 0.000000
							CHANNELS 3 Xrotation Yrotation Zrotation
							JOINT mixamorig:RightHand
							{
								OFFSET -55.150291 0.000000 0.000000
								CHANNELS 3 Xrotation Yrotation Zrotation
								JOINT mixamorig:RightHandMiddle1
								{
									OFFSET -23.317566 0.000000 0.000000
									CHANNELS 3 Xrotation Yrotation Zrotation
									JOINT mixamorig:RightHandMiddle2
									{
										OFFSET -6.378403 0.000000 0.000000
										CHANNELS 3 Xrotation Yrotation Zrotation
										JOINT mixamorig:RightHandMiddle3
										{
											OFFSET -6.148193 0.000000 0.000000
											CHANNELS 3 Xrotation Yrotation Zrotation
											JOINT mixamorig:RightHandMiddle4
											{
												OFFSET -6.583389 0.000000 0.000000
												CHANNELS 3 Xrotation Yrotation Zrotation
												End Site
												{
													OFFSET 1.171692 6.395905 1.029786
												}
											}
										}
									}
								}
								JOINT mixamorig:RightHandThumb1
								{
									OFFSET -7.190521 -3.860474 5.435846
									CHANNELS 3 Xrotation Yrotation Zrotation
									JOINT mixamorig:RightHandThumb2
									{
										OFFSET -6.567429 -3.791718 3.791708
										CHANNELS 3 Xrotation Yrotation Zrotation
										JOINT mixamorig:RightHandThumb3
										{
											OFFSET -6.062469 -3.500153 3.500166
											CHANNELS 3 Xrotation Yrotation Zrotation
											JOINT mixamorig:RightHandThumb4
											{
												OFFSET -4.792618 -2.767029 2.767022
												CHANNELS 3 Xrotation Yrotation Zrotation
												End Site
												{
													OFFSET -0.100327 6.053253 1.276754
												}
											}
										}
									}
								}
								JOINT mixamorig:RightHandIndex1
								{
									OFFSET -23.048981 -0.310791 4.992554
									CHANNELS 3 Xrotation Yrotation Zrotation
									JOINT mixamorig:RightHandIndex2
									{
										OFFSET -6.227539 0.000000 0.000000
										CHANNELS 3 Xrotation Yrotation Zrotation
										JOINT mixamorig:RightHandIndex3
										{
											OFFSET -6.095047 0.000000 0.000000
											CHANNELS 3 Xrotation Yrotation Zrotation
											JOINT mixamorig:RightHandIndex4
											{
												OFFSET -5.484772 0.000000 0.000000
												CHANNELS 3 Xrotation Yrotation Zrotation
												End Site
												{
													OFFSET 1.420593 5.237305 0.797056
												}
											}
										}
									}
								}
								JOINT mixamorig:RightHandRing1
								{
									OFFSET -22.246323 0.020569 -3.963762
									CHANNELS 3 Xrotation Yrotation Zrotation
									JOINT mixamorig:RightHandRing2
									{
										OFFSET -6.322128 0.000000 0.000000
										CHANNELS 3 Xrotation Yrotation Zrotation
										JOINT mixamorig:RightHandRing3
										{
											OFFSET -5.900024 0.000000 0.000000
											CHANNELS 3 Xrotation Yrotation Zrotation
											JOINT mixamorig:RightHandRing4
											{
												OFFSET -6.518356 0.000000 0.000000
												CHANNELS 3 Xrotation Yrotation Zrotation
												End Site
												{
													OFFSET 1.636398 6.232697 0.982186
												}
											}
										}
									}
								}
								JOINT mixamorig:RightHandPinky1
								{
									OFFSET -20.411011 -0.303314 -8.561701
									CHANNELS 3 Xrotation Yrotation Zrotation
									JOINT mixamorig:RightHandPinky2
									{
										OFFSET -6.907349 0.000000 0.000000
										CHANNELS 3 Xrotation Yrotation Zrotation
										JOINT mixamorig:RightHandPinky3
										{
											OFFSET -4.623840 0.000000 0.000000
											CHANNELS 3 Xrotation Yrotation Zrotation
											JOINT mixamorig:RightHandPinky4
											{
												OFFSET -5.218353 0.000000 0.000000
												CHANNELS 3 Xrotation Yrotation Zrotation
												End Site
												{
													OFFSET 0.602097 5.118835 0.816273
												}
											}
										}
									}
								}
							}
						}
					}
				}
			}
		}
	}
	JOINT mixamorig:LeftUpLeg
	{
		OFFSET 18.168400 -13.561905 -0.039000
		CHANNELS 3 Xrotation Yrotation Zrotation
		JOINT mixamorig:LeftLeg
		{
			OFFSET 0.577358 -80.825211 -3.695000
			CHANNELS 3 Xrotation Yrotation Zrotation
			JOINT mixamorig:LeftFoot
			{
				OFFSET -0.577356 -83.370262 -6.520700
				CHANNELS 3 Xrotation Yrotation Zrotation
				JOINT mixamorig:LeftToeBase
				{
					OFFSET 0.750401 -20.798306 25.135401
					CHANNELS 3 Xrotation Yrotation Zrotation
					JOINT mixamorig:LeftToe_End
					{
						OFFSET -0.000500 0.001200 19.917799
						CHANNELS 3 Xrotation Yrotation Zrotation
						End Site
						{
							OFFSET 0.000000 19.917805 0.000000
						}
					}
				}
			}
		}
	}
	JOINT mixamorig:RightUpLeg
	{
		OFFSET -18.162500 -13.585098 -0.041000
		CHANNELS 3 Xrotation Yrotation Zrotation
		JOINT mixamorig:RightLeg
		{
			OFFSET -0.595024 -80.945297 -3.631900
			CHANNELS 3 Xrotation Yrotation Zrotation
			JOINT mixamorig:RightFoot
			{
				OFFSET 0.595024 -83.218193 -6.561200
				CHANNELS 3 Xrotation Yrotation Zrotation
				JOINT mixamorig:RightToeBase
				{
					OFFSET -0.753601 -20.807106 25.115000
					CHANNELS 3 Xrotation Yrotation Zrotation
					JOINT mixamorig:RightToe_End
					{
						OFFSET 0.000299 0.001700 19.918200
						CHANNELS 3 Xrotation Yrotation Zrotation
						End Site
						{
							OFFSET 0.000000 19.918203 0.000000
						}
					}
				}
			}
		}
	}
}
MOTION
Frames: 6
Frame Time: 0.033333
0.374572 200.312607 -0.375375 -3.753456 -5.224849 -3.507160 3.303689 1.534728 2.479810 1.151890 0.339457 1.552798 1.126015 0.361543 1.555886 5.626309 -0.078963 0.454683 -7.563345 1.375724 -0.080566 -0.000000 -0.000000 0.000000 -0.000000 -0.000000 0.000000 -0.000000 -0.000000 0.000000 1.049449 -17.442070 -12.319430 3.916257 -19.989266 -69.765219 -0.000003 -1.459366 -0.000010 -33.230414 -1.364821 -6.186622 -0.076312 2.665773 -15.696837 0.268779 1.755800 -17.405547 0.300526 1.853981 -18.413331 -0.000002 -0.000000 -0.000004 -0.663006 2.160312 4.832513 11.853539 25.421633 17.058315 -13.813947 3.537276 9.036019 0.000000 0.000003 0.000003 0.019866 -0.969583 -7.593542 0.267874 1.752891 -17.375725 0.057679 0.820954 -8.038017 -0.000001 -0.000000 0.000000 0.136910 3.641777 -21.133524 0.386620 2.094790 -20.911910 0.283040 1.800633 -17.864997 -0.000001 -0.000001 0.000002 0.927728 5.555915 -27.128055 0.268790 1.755841 -17.405882 0.241905 1.667704 -16.505890 0.000000 -0.000000 0.000004 1.203181 15.343660 14.705968 13.158861 27.555116 58.785136 0.000002 6.693751 0.000023 -20.179082 -0.514097 6.782784 -0.136228 -2.205103 14.998891 0.214442 -1.398354 17.436868 0.239776 -1.476531 18.446266 0.000000 0.000002 0.000000 -1.665249 -0.174478 -4.219026 12.710945 -29.825339 -16.130955 -15.549423 -3.559393 -12.707116 -0.000005 -0.000000 -0.000001 0.038548 1.262295 6.823722 0.213720 -1.396021 17.407031 0.046031 -0.653855 8.053204 -0.000000 0.000001 0.000000 0.030609 -3.075770 20.451002 0.308451 -1.668273 20.948549 0.225821 -1.434045 17.897092 -0.000001 -0.000001 0.000004 0.748881 -4.885240 26.473776 0.214456 -1.398375 17.437248 0.193009 -1.328177 16.535827 -0.000003 0.000002 -0.000001 -13.008421 14.262758 10.836331 13.096333 2.098449 4.210344 2.619593 0.419505 -7.303446 -4.928528 0.000007 -0.000002 0.000000 0.000000 0.000000 -0.243978 -10.396286 3.110964 6.110688 -9.762777 -3.279713 -1.645244 -1.557836 2.850911 -7.282878 -0.000007 -0.000001 -0.000001 0.000002 -0.000000 
0.372001 200.290024 -0.330879 -3.806769 -5.234439 -3.508430 3.297615 1.537074 2.475208 1.143475 0.343406 1.546061 1.117589 0.365627 1.549212 5.650210 -0.058677 0.446931 -7.611218 1.375126 0.177320 0.000000 -0.000000 0.000000 0.000000 -0.000000 0.000000 0.000000 -0.000000 0.000000 1.034193 -17.401784 -12.307687 3.940012 -19.959939 -69.769153 0.000002 -1.479548 0.000001 -33.200300 -1.397348 -6.171960 -0.076331 2.665777 -15.697687 0.268779 1.755792 -17.405441 0.300521 1.853972 -18.413275 -0.000003 -0.000001 -0.000004 -0.662746 2.160797 4.832355 11.853780 25.422072 17.058152 -13.813928 3.537364 9.036035 0.000000 0.000001 0.000003 0.019662 -0.969495 -7.595985 0.267875 1.752905 -17.375878 0.057679 0.820963 -8.038166 -0.000001 0.000000 0.000000 0.136853 3.641597 -21.132534 0.386587 2.094686 -20.910838 0.283009 1.800528 -17.863957 -0.000001 -0.000001 0.000009 0.927599 5.555777 -27.127152 0.268745 1.755671 -17.404159 0.241858 1.667538 -16.504157 -0.000001 -0.000001 -0.000001 1.195608 15.285048 14.699091 13.184863 27.603914 58.776257 -0.000004 6.700326 0.000012 -20.215328 -0.451969 6.695141 -0.136249 -2.204943 14.997997 0.214413 -1.398237 17.435514 0.239734 -1.476426 18.444895 -0.000001 0.000002 0.000004 -1.665125 -0.174799 -4.218706 12.711575 -29.826528 -16.130779 -15.549378 -3.559487 -12.707160 -0.000002 0.000002 -0.000001 0.038536 1.262416 6.823455 0.213712 -1.395988 17.406592 0.046023 -0.653806 8.052773 0.000002 -0.000001 0.000000 0.030656 -3.075859 20.449723 0.308411 -1.668182 20.947326 0.225799 -1.433958 17.895862 -0.000000 -0.000003 0.000005 0.748679 -4.884942 26.472929 0.214439 -1.398307 17.436344 0.192989 -1.328118 16.534930 -0.000001 -0.000001 0.000002 -13.025505 14.266130 10.849811 13.268384 2.102457 4.220859 2.521128 0.418538 -7.278162 -4.924755 0.000001 0.000001 0.000000 0.000000 0.000000 -0.275989 -10.398621 3.075417 6.314136 -9.761802 -3.257888 -1.761238 -1.554593 2.864993 -7.290570 -0.000004 0.000000 -0.000001 -0.000000 0.000000 
0.371443 200.268692 -0.266454 -3.877863 -5.236353 -3.518980 3.288046 1.541287 2.465358 1.128132 0.351135 1.533746 1.102311 0.373775 1.537044 5.716957 -0.014211 0.492075 -7.783944 1.346855 0.916580 0.000000 -0.000000 -0.000000 0.000000 -0.000000 -0.000000 0.000000 -0.000000 -0.000000 0.983122 -17.293593 -12.322262 4.008673 -19.932975 -69.754133 -0.000005 -1.533539 -0.000009 -33.081506 -1.435215 -6.107920 -0.076392 2.665784 -15.700178 0.268772 1.755769 -17.405183 0.300516 1.853946 -18.413027 -0.000001 0.000000 0.000004 -0.661978 2.162222 4.831826 11.854481 25.423445 17.057776 -13.813809 3.537645 9.036019 0.000001 0.000000 -0.000001 0.019068 -0.969234 -7.603196 0.267887 1.752944 -17.376281 0.057688 0.821011 -8.038557 -0.000001 -0.000001 0.000000 0.136692 3.641062 -21.129586 0.386469 2.094389 -20.907668 0.282911 1.800222 -17.860789 -0.000001 0.000001 -0.000001 0.927242 5.555352 -27.124544 0.268583 1.755173 -17.399016 0.241709 1.667035 -16.499046 -0.000001 0.000001 0.000002 1.174313 15.147422 14.676891 13.246699 27.685566 58.835229 -0.000000 6.709304 -0.000026 -20.337800 -0.282332 6.406341 -0.136311 -2.204445 14.995388 0.214314 -1.397926 17.431423 0.239639 -1.476111 18.440807 -0.000001 -0.000000 -0.000000 -1.664742 -0.175713 -4.217771 12.713480 -29.830096 -16.130267 -15.549259 -3.559764 -12.707248 0.000000 0.000002 0.000003 0.038506 1.262797 6.822747 0.213680 -1.395884 17.405228 0.046010 -0.653703 8.051414 -0.000000 0.000000 0.000001 0.030828 -3.076130 20.445861 0.308306 -1.667921 20.943703 0.225705 -1.433654 17.892282 -0.000001 0.000001 0.000000 0.748126 -4.884058 26.470391 0.214366 -1.398100 17.433674 0.192937 -1.327920 16.532256 0.000000 -0.000003 0.000004 -13.013793 14.271669 10.869234 13.427923 2.098132 4.230571 2.421912 0.418078 -7.255847 -4.916662 -0.000003 -0.000001 0.000000 0.000000 0.000000 -0.251917 -10.409304 3.049802 6.464828 -9.753081 -3.232358 -1.859662 -1.555813 2.876294 -7.301812 -0.000000 0.000001 -0.000001 -0.000000 0.000000 
0.375190 200.259674 -0.177086 -3.973459 -5.219967 -3.552239 3.272162 1.546542 2.449125 1.104333 0.361763 1.513589 1.078680 0.385211 1.517038 5.836068 0.071448 0.673013 -8.091761 1.411381 2.183938 0.000000 -0.000000 -0.000000 0.000000 -0.000000 -0.000000 0.000000 -0.000000 -0.000000 0.893662 -17.090301 -12.390896 4.127175 -19.934624 -69.685613 -0.000007 -1.617165 0.000002 -32.831753 -1.487112 -5.991063 -0.076488 2.665797 -15.704321 0.268762 1.755729 -17.404767 0.300506 1.853908 -18.412590 -0.000002 -0.000001 -0.000004 -0.660703 2.164573 4.830950 11.855660 25.425642 17.057074 -13.813668 3.538093 9.036076 0.000003 -0.000004 -0.000000 0.018089 -0.968814 -7.615197 0.267909 1.753015 -17.376995 0.057701 0.821079 -8.039237 -0.000000 -0.000000 -0.000001 0.136434 3.640182 -21.124790 0.386280 2.093888 -20.902454 0.282746 1.799715 -17.855607 0.000000 -0.000000 0.000001 0.926652 5.554658 -27.120241 0.268326 1.754346 -17.390620 0.241466 1.666214 -16.490623 -0.000001 -0.000000 0.000001 1.137127 14.930015 14.654270 13.338451 27.775106 58.962516 0.000002 6.715106 -0.000018 -20.590447 -0.060858 5.973085 -0.136437 -2.203628 14.991114 0.214151 -1.397404 17.424687 0.239451 -1.475588 18.434074 -0.000001 0.000001 -0.000000 -1.664116 -0.177236 -4.216199 12.716603 -29.835994 -16.129422 -15.549035 -3.560213 -12.707365 -0.000004 0.000002 -0.000000 0.038437 1.263405 6.821541 0.213630 -1.395704 17.403015 0.045980 -0.653518 8.049207 0.000001 0.000000 -0.000001 0.031098 -3.076580 20.439473 0.308124 -1.667457 20.937788 0.225562 -1.433214 17.886326 -0.000002 -0.000000 0.000006 0.747176 -4.882612 26.466186 0.214260 -1.397763 17.429306 0.192828 -1.327566 16.527866 -0.000001 -0.000001 -0.000001 -12.954153 14.288900 10.911492 13.541371 2.063814 4.233396 2.343845 0.416418 -7.259873 -4.909860 0.000000 -0.000003 0.000000 -0.000001 -0.000000 -0.087521 -10.431573 3.059406 6.422924 -9.745626 -3.202130 -1.875482 -1.555213 2.874466 -7.310480 0.000003 0.000000 -0.000001 -0.000000 -0.000000 
0.382735 200.266174 -0.066386 -4.085966 -5.177106 -3.611457 3.248761 1.550496 2.430626 1.072990 0.370878 1.485866 1.047508 0.395348 1.489353 5.971313 0.220742 1.016035 -8.503240 1.746525 3.844463 -0.000000 0.000000 -0.000001 -0.000000 0.000000 -0.000001 -0.000000 0.000000 -0.000001 0.772923 -16.807844 -12.484121 4.267370 -19.906185 -69.604327 0.000003 -1.736120 0.000018 -32.533755 -1.635334 -5.878716 -0.076617 2.665810 -15.709987 0.268743 1.755674 -17.404198 0.300486 1.853851 -18.412030 -0.000001 -0.000001 0.000004 -0.658944 2.167824 4.829769 11.857267 25.428724 17.056147 -13.813452 3.538713 9.036117 0.000001 0.000001 -0.000004 0.016742 -0.968229 -7.631696 0.267937 1.753107 -17.377914 0.057716 0.821174 -8.040196 0.000000 -0.000000 -0.000001 0.136071 3.638962 -21.118137 0.386013 2.093198 -20.895236 0.282522 1.799016 -17.848449 -0.000002 0.000001 -0.000004 0.925846 5.553696 -27.114244 0.267972 1.753215 -17.378983 0.241125 1.665062 -16.478998 0.000002 0.000000 -0.000005 1.082604 14.633685 14.643280 13.463242 27.877422 59.124631 0.000000 6.723779 -0.000017 -21.005060 0.103007 5.583063 -0.136600 -2.202503 14.985174 0.213924 -1.396684 17.415376 0.239218 -1.474863 18.424785 0.000000 0.000000 0.000002 -1.663247 -0.179337 -4.213999 12.720944 -29.844129 -16.128262 -15.548789 -3.560836 -12.707604 0.000000 -0.000001 -0.000001 0.038347 1.264270 6.819891 0.213549 -1.395478 17.399927 0.045948 -0.653277 8.046124 -0.000001 -0.000000 0.000002 0.031467 -3.077193 20.430655 0.307894 -1.666838 20.929559 0.225348 -1.432572 17.878129 -0.000001 0.000001 0.000000 0.745880 -4.880609 26.460404 0.214125 -1.397291 17.423230 0.192684 -1.327077 16.521808 -0.000001 0.000000 0.000001 -12.867620 14.323760 10.992815 13.623068 1.980688 4.219795 2.285446 0.411606 -7.305467 -4.909015 0.000003 -0.000001 0.000000 0.000000 0.000000 0.233818 -10.479055 3.106918 6.144873 -9.737215 -3.155807 -1.787066 -1.550355 2.849712 -7.317150 -0.000007 -0.000001 -0.000000 -0.000000 -0.000000 
0.389813 200.276505 0.051612 -4.192067 -5.100724 -3.683208 3.219045 1.552954 2.414841 1.036611 0.376558 1.453482 1.011151 0.401908 1.456887 6.053634 0.446579 1.458876 -9.010409 2.441396 5.732745 0.000000 -0.000000 0.000000 0.000000 -0.000000 0.000000 0.000000 -0.000000 0.000000 0.632355 -16.488949 -12.543209 4.370686 -19.725518 -69.589642 0.000000 -1.899239 0.000002 -32.431893 -2.073410 -5.811127 -0.076787 2.665829 -15.717227 0.268719 1.755604 -17.403508 0.300463 1.853780 -18.411316 0.000001 -0.000000 0.000001 -0.656709 2.171953 4.828275 11.859310 25.432640 17.054986 -13.813166 3.539510 9.036152 -0.000001 -0.000001 0.000001 0.015022 -0.967484 -7.652703 0.267974 1.753227 -17.379159 0.057730 0.821295 -8.041411 -0.000001 -0.000000 -0.000002 0.135611 3.637416 -21.109659 0.385683 2.092320 -20.886056 0.282234 1.798124 -17.839331 0.000000 -0.000001 -0.000000 0.924815 5.552478 -27.106635 0.267516 1.751765 -17.364192 0.240695 1.663609 -16.464195 -0.000001 -0.000001 0.000001 1.012625 14.263919 14.640058 13.623333 28.004143 59.290639 -0.000001 6.750508 -0.000005 -21.562989 0.219557 5.293122 -0.136812 -2.201067 14.977654 0.213630 -1.395765 17.403544 0.238909 -1.473957 18.412947 0.000001 0.000001 0.000001 -1.662157 -0.181994 -4.211208 12.726454 -29.854480 -16.126772 -15.548412 -3.561639 -12.707828 0.000004 0.000001 -0.000001 0.038247 1.265360 6.817776 0.213455 -1.395165 17.396060 0.045899 -0.652960 8.042234 0.000003 -0.000001 0.000002 0.031942 -3.077987 20.419450 0.307594 -1.666042 20.919136 0.225086 -1.431764 17.867689 -0.000002 -0.000002 -0.000000 0.744236 -4.878053 26.453099 0.213931 -1.396691 17.415533 0.192510 -1.326486 16.514071 -0.000002 -0.000001 -0.000001 -12.817229 14.368725 11.112493 13.740405 1.840788 4.185077 2.219613 0.403929 -7.381098 -4.911863 0.000005 0.000001 0.000001 -0.000000 -0.000000 0.612771 -10.554738 3.171978 5.765449 -9.735558 -3.095093 -1.655328 -1.544254 2.811074 -7.331643 0.000022 0.000002 0.000000 0.000001 0.000000 
